<?xml version="1.0" encoding="UTF-8" standalone="no"?>
<svg width="468px" height="198px" viewBox="0 0 468 198" version="1.1" xmlns="http://www.w3.org/2000/svg" xmlns:xlink="http://www.w3.org/1999/xlink">
    <!-- Generator: Sketch 50 (54983) - http://www.bohemiancoding.com/sketch -->
    <title>Group 8</title>
    <desc>Created with Sketch.</desc>
    <defs>
        <polygon id="path-1" points="0.125501346 0.184503308 227.681551 0.184503308 227.681551 109 0.125501346 109"></polygon>
        <polygon id="path-3" points="0.139809756 0.614566667 140.41098 0.614566667 140.41098 205.48397 0.139809756 205.48397"></polygon>
    </defs>
    <g id="Page-1" stroke="none" stroke-width="1" fill="none" fill-rule="evenodd">
        <g id="landing" transform="translate(-107.000000, -977.000000)">
            <g id="Group-8" transform="translate(94.000000, 977.000000)">
                <path d="M248,208 L0,208 C0,208 117.111111,104.5 248,208" id="Fill-1" fill="#B643D6"></path>
                <path d="M246,208 C246,208 363.111111,104.5 494,208 L246,208 Z" id="Fill-3" fill="#B643D6"></path>
                <g id="Group-7" transform="translate(22.000000, 99.000000)">
                    <mask id="mask-2" fill="white">
                        <use xlink:href="#path-1"></use>
                    </mask>
                    <g id="Clip-6"></g>
                    <path d="M227.681551,109.000348 L0.125501346,7.31437109 C0.125501346,7.31437109 149.734672,-39.9703555 227.681551,109.000348" id="Fill-5" fill="#B643D6" mask="url(#mask-2)"></path>
                </g>
                <path d="M246,208 L472,104.016206 C472,104.016206 321.268658,60.408779 246,208" id="Fill-8" fill="#B643D6"></path>
                <g id="Group-12" transform="translate(109.000000, 0.000000)">
                    <mask id="mask-4" fill="white">
                        <use xlink:href="#path-3"></use>
                    </mask>
                    <g id="Clip-11"></g>
                    <path d="M139.684249,205.48397 L0.139809756,0.613536667 C0.139809756,0.613536667 152.149078,39.7192033 139.684249,205.48397" id="Fill-10" fill="#B643D6" mask="url(#mask-4)"></path>
                </g>
                <path d="M246.274,206 L392,4 C392,4 238.66647,38.9246687 246.274,206" id="Fill-13" fill="#B643D6"></path>
            </g>
        </g>
    </g>
</svg>