<?xml version="1.0" encoding="UTF-8" standalone="no"?>
<svg width="494px" height="567px" viewBox="0 0 494 567" version="1.1" xmlns="http://www.w3.org/2000/svg" xmlns:xlink="http://www.w3.org/1999/xlink">
    <!-- Generator: Sketch 50 (54983) - http://www.bohemiancoding.com/sketch -->
    <title>Group 5</title>
    <desc>Created with Sketch.</desc>
    <defs></defs>
    <g id="Page-1" stroke="none" stroke-width="1" fill="none" fill-rule="evenodd">
        <g id="call2action" transform="translate(-946.000000, 0.000000)">
            <g id="Group-5" transform="translate(1248.078261, -186.000893) scale(-1, -1) rotate(-154.000000) translate(-1248.078261, 186.000893) translate(412.578261, -1023.500893)">
                <path d="M1119.60268,291.324869 C918.528101,-31.128611 748.668985,-12.4035134 610.025328,347.500162 C471.381671,707.403837 471.381671,972.685411 610.025328,1143.34488 C645.238711,1182.8907 687.841608,1210.12199 737.834017,1225.03876 C787.826427,1239.95553 797.624879,1332.34092 767.229373,1502.19494 C747.245076,1622.74119 778.140934,1691.28076 859.916945,1707.81364 C941.692957,1724.34653 1028.25487,1692.54537 1119.60268,1612.41015 L1119.60268,291.324869 Z" id="Path-8" fill="#A4F9FF" transform="translate(812.822631, 887.406407) rotate(-47.000000) translate(-812.822631, -887.406407) "></path>
                <path d="M1165.08887,191.650849 C964.01429,-130.802631 794.155173,-112.077533 655.511516,247.826142 C516.86786,607.729817 516.86786,873.011391 655.511516,1043.67086 C690.7249,1083.21668 733.327796,1110.44797 783.320205,1125.36474 C833.312615,1140.28151 843.111067,1232.6669 812.715562,1402.52092 C792.731265,1523.06717 823.627122,1591.60674 905.403134,1608.13962 C987.179145,1624.67251 1073.74106,1592.87135 1165.08887,1512.73613 L1165.08887,191.650849 Z" id="Path-8" fill="#70F3FD" transform="translate(858.308820, 787.732387) rotate(-47.000000) translate(-858.308820, -787.732387) "></path>
            </g>
        </g>
    </g>
</svg>