<?xml version="1.0" encoding="UTF-8" standalone="no"?>
<svg width="1440px" height="475px" viewBox="0 0 1440 475" version="1.1" xmlns="http://www.w3.org/2000/svg" xmlns:xlink="http://www.w3.org/1999/xlink">
    <!-- Generator: Sketch 50 (54983) - http://www.bohemiancoding.com/sketch -->
    <title>Group 3</title>
    <desc>Created with Sketch.</desc>
    <defs>
        <polygon id="path-1" points="0.242210955 0.355740311 439.413343 0.355740311 439.413343 210.162594 0.242210955 210.162594"></polygon>
        <polygon id="path-3" points="0.27025386 0.0907968084 271.416032 0.0907968084 271.416032 395.248725 0.27025386 395.248725"></polygon>
        <polygon id="path-5" points="0.242210955 0.355740311 439.413343 0.355740311 439.413343 210.162594 0.242210955 210.162594"></polygon>
        <polygon id="path-7" points="0.27025386 0.0907968084 271.416032 0.0907968084 271.416032 395.248725 0.27025386 395.248725"></polygon>
    </defs>
    <g id="Page-1" stroke="none" stroke-width="1" fill="none" fill-rule="evenodd">
        <g id="call2action" transform="translate(0.000000, -1541.000000)">
            <g id="Group-3" transform="translate(-1070.000000, 544.000000)">
                <g id="Group-5" transform="translate(1451.419806, 1429.463517) scale(-1, -1) rotate(-31.000000) translate(-1451.419806, -1429.463517) translate(368.919806, 412.963517)">
                    <path d="M1658.63437,649.394646 C1457.5598,326.941166 1287.70068,345.666264 1149.05702,705.569939 C1010.41337,1065.47361 1010.41337,1330.75519 1149.05702,1501.41466 C1184.27041,1540.96048 1226.8733,1568.19177 1276.86571,1583.10854 C1326.85812,1598.02531 1336.65657,1690.4107 1306.26107,1860.26471 C1286.27677,1980.81096 1317.17263,2049.35053 1398.94864,2065.88342 C1480.72465,2082.41631 1567.28656,2050.61515 1658.63437,1970.47993 L1658.63437,649.394646 Z" id="Path-8" fill="#9DFFAF" transform="translate(1351.854325, 1245.476184) rotate(-47.000000) translate(-1351.854325, -1245.476184) "></path>
                    <path d="M1169.78205,191.591672 C968.707472,-130.861808 798.848356,-112.13671 660.204699,247.766965 C521.561042,607.67064 521.561042,872.952214 660.204699,1043.61169 C695.418082,1083.1575 738.020978,1110.3888 788.013388,1125.30557 C838.005797,1140.22234 847.804249,1232.60773 817.408744,1402.46174 C797.424447,1523.00799 828.320305,1591.54756 910.096316,1608.08045 C991.872328,1624.61334 1078.43424,1592.81217 1169.78205,1512.67696 L1169.78205,191.591672 Z" id="Path-8" fill="#61F97D" transform="translate(863.002002, 787.673211) scale(-1, 1) rotate(-99.000000) translate(-863.002002, -787.673211) "></path>
                    <path d="M1119.62856,191.591672 C918.553986,-130.861808 748.69487,-112.13671 610.051213,247.766965 C471.407557,607.67064 471.407557,872.952214 610.051213,1043.61169 C645.264596,1083.1575 687.867493,1110.3888 737.859902,1125.30557 C787.852312,1140.22234 797.650764,1232.60773 767.255259,1402.46174 C747.270962,1523.00799 778.166819,1591.54756 859.942831,1608.08045 C941.718842,1624.61334 1028.28075,1592.81217 1119.62856,1512.67696 L1119.62856,191.591672 Z" id="Path-8" fill="#3FDB5B" transform="translate(812.848517, 787.673211) rotate(-47.000000) translate(-812.848517, -787.673211) "></path>
                </g>
                <g id="Group-2" transform="translate(1115.000000, 997.000000)">
                    <circle id="Oval-4" fill="#8A5DE2" cx="85" cy="85" r="85"></circle>
                    <rect id="Rectangle" fill="#7C43D6" x="81" y="116" width="9" height="116" rx="4.5"></rect>
                </g>
                <g id="Group-2-Copy" transform="translate(1197.000000, 1061.000000)">
                    <circle id="Oval-4" fill="#C951EB" cx="76.5" cy="76.5" r="76.5"></circle>
                    <rect id="Rectangle" fill="#B643D6" x="73" y="104" width="8" height="104" rx="4"></rect>
                </g>
                <g id="Group-11" transform="translate(2253.528714, 1340.350436) rotate(57.000000) translate(-2253.528714, -1340.350436) translate(1824.028714, 829.850436)">
                    <g id="Group-8" transform="translate(429.425719, 510.671776) scale(-1, 1) rotate(57.000000) translate(-429.425719, -510.671776) translate(-48.074281, 309.671776)">
                        <path d="M479.433418,400.622446 L0,400.622446 C0,400.622446 226.399114,201.13217 479.433418,400.622446" id="Fill-1" fill="#B643D6"></path>
                        <path d="M475.055031,400.622446 C475.055031,400.622446 701.454145,201.13217 954.48845,400.622446 L475.055031,400.622446 Z" id="Fill-3" fill="#B643D6"></path>
                        <g id="Group-7" transform="translate(42.689277, 190.459851)">
                            <mask id="mask-2" fill="white">
                                <use xlink:href="#path-1"></use>
                            </mask>
                            <g id="Clip-6"></g>
                            <path d="M439.413343,210.163265 L0.242210955,14.1028184 C0.242210955,14.1028184 288.979991,-77.0667303 439.413343,210.163265" id="Fill-5" fill="#B643D6" mask="url(#mask-2)"></path>
                        </g>
                        <path d="M475.055031,400.622446 L911.799173,199.884768 C911.799173,199.884768 620.511426,115.701903 475.055031,400.622446" id="Fill-8" fill="#B643D6"></path>
                        <g id="Group-12" transform="translate(210.162594, 0.000000)">
                            <mask id="mask-4" fill="white">
                                <use xlink:href="#path-3"></use>
                            </mask>
                            <g id="Clip-11"></g>
                            <path d="M270.011252,395.248725 L0.27025386,0.0888101151 C0.27025386,0.0888101151 294.10591,75.5169315 270.011252,395.248725" id="Fill-10" fill="#B643D6" mask="url(#mask-4)"></path>
                        </g>
                        <path d="M475.585026,396.244058 L757.461017,6.56758108 C757.461017,6.56758108 460.869876,73.9404615 475.585026,396.244058" id="Fill-13" fill="#B643D6"></path>
                    </g>
                </g>
                <g id="Group-11" transform="translate(2204.063790, 1368.247236) rotate(57.000000) translate(-2204.063790, -1368.247236) translate(1774.563790, 857.747236)">
                    <g id="Group-8" transform="translate(429.425719, 510.671776) scale(-1, 1) rotate(57.000000) translate(-429.425719, -510.671776) translate(-48.074281, 309.671776)">
                        <g id="Group-7" transform="translate(42.689277, 190.459851)">
                            <mask id="mask-6" fill="white">
                                <use xlink:href="#path-5"></use>
                            </mask>
                            <g id="Clip-6"></g>
                            <path d="M439.413343,210.163265 L0.242210955,14.1028184 C0.242210955,14.1028184 288.979991,-77.0667303 439.413343,210.163265" id="Fill-5" fill="#C45DE1" mask="url(#mask-6)"></path>
                        </g>
                        <path d="M475.055031,400.622446 L911.799173,199.884768 C911.799173,199.884768 620.511426,115.701903 475.055031,400.622446" id="Fill-8" fill="#C45DE1"></path>
                        <g id="Group-12" transform="translate(210.162594, 0.000000)">
                            <mask id="mask-8" fill="white">
                                <use xlink:href="#path-7"></use>
                            </mask>
                            <g id="Clip-11"></g>
                            <path d="M270.011252,395.248725 L0.27025386,0.0888101151 C0.27025386,0.0888101151 294.10591,75.5169315 270.011252,395.248725" id="Fill-10" fill="#C45DE1" mask="url(#mask-8)"></path>
                        </g>
                        <path d="M475.585026,396.244058 L757.461017,6.56758108 C757.461017,6.56758108 460.869876,73.9404615 475.585026,396.244058" id="Fill-13" fill="#C45DE1"></path>
                    </g>
                </g>
            </g>
        </g>
    </g>
</svg>