<?xml version="1.0" encoding="UTF-8" standalone="no"?>
<svg width="464px" height="259px" viewBox="0 0 464 259" version="1.1" xmlns="http://www.w3.org/2000/svg" xmlns:xlink="http://www.w3.org/1999/xlink">
    <!-- Generator: Sketch 50 (54983) - http://www.bohemiancoding.com/sketch -->
    <title>Group</title>
    <desc>Created with Sketch.</desc>
    <defs>
        <polygon id="path-1" points="0.244636364 0.195953333 285.456758 0.195953333 285.456758 118.456725 0.244636364 118.456725"></polygon>
        <polygon id="path-3" points="0.000133597494 0.252082099 463.261676 0.252082099 463.261676 107.45208 0.000133597494 107.45208"></polygon>
        <polygon id="path-5" points="0.706052941 0.243155085 90.7004647 0.243155085 90.7004647 91 0.706052941 91"></polygon>
    </defs>
    <g id="Page-1" stroke="none" stroke-width="1" fill="none" fill-rule="evenodd">
        <g id="co2" transform="translate(-860.000000, -3249.000000)">
            <g id="Group" transform="translate(860.000000, 3249.000000)">
                <g id="Group-3" transform="translate(87.000000, 0.000000)">
                    <mask id="mask-2" fill="white">
                        <use xlink:href="#path-1"></use>
                    </mask>
                    <g id="Clip-2"></g>
                    <path d="M0.244636364,114.866892 C0.244636364,114.866892 10.4870606,3.423392 135.759788,0.250058667 C135.759788,0.250058667 275.214333,-6.096608 285.456758,118.456725 L0.244636364,114.866892 Z" id="Fill-1" fill="#FF839C" mask="url(#mask-2)"></path>
                </g>
                <g id="Group-6" transform="translate(0.000000, 104.000000)">
                    <mask id="mask-4" fill="white">
                        <use xlink:href="#path-3"></use>
                    </mask>
                    <g id="Clip-5"></g>
                    <path d="M8.10338378,107.45208 L457.784438,107.45208 C461.447059,107.45208 464.080573,104.83208 463.028735,102.22408 C454.233114,80.42008 416.214897,-2.02472 345.077114,0.46808 C263.123114,3.34008 108.156519,0.46808 108.156519,0.46808 C108.156519,0.46808 36.1518703,-9.15032 0.23732973,99.98168 C-1.01358919,103.78088 2.84027568,107.45208 8.10338378,107.45208" id="Fill-4" fill="#FF839C" mask="url(#mask-4)"></path>
                </g>
                <g id="Group-9" transform="translate(56.000000, 168.000000)">
                    <mask id="mask-6" fill="white">
                        <use xlink:href="#path-5"></use>
                    </mask>
                    <g id="Clip-8"></g>
                    <path d="M90.7004647,45.6213076 C90.7004647,70.6833246 70.5542882,91.0002314 45.7028765,91.0002314 C20.8522294,91.0002314 0.706052941,70.6833246 0.706052941,45.6213076 C0.706052941,20.5592907 20.8522294,0.243155085 45.7028765,0.243155085 C70.5542882,0.243155085 90.7004647,20.5592907 90.7004647,45.6213076" id="Fill-7" fill="#F85A7A" mask="url(#mask-6)"></path>
                </g>
                <path d="M407,213.499613 C407,238.628712 386.628885,259 361.5,259 C336.371115,259 316,238.628712 316,213.499613 C316,188.370515 336.371115,168 361.5,168 C386.628885,168 407,188.370515 407,213.499613" id="Fill-10" fill="#F85A7A"></path>
                <path d="M238,17.44324 L238,96.7936813 C238,98.6849769 236.450615,100.222222 234.531631,100.234326 L116.519138,100.999923 C114.303086,101.014297 112.62793,99.0216275 113.071603,96.8829505 C116.546916,80.1464975 136.019934,18.2239668 234.337958,14.0033516 C236.330245,13.917865 238,15.4785621 238,17.44324" id="Fill-12" fill="#ABFFFE"></path>
                <path d="M250,20.0612259 L250,97.4724071 C250,98.5977371 250.916261,99.5156684 252.059595,99.5333357 L345.871146,100.999721 C347.173033,101.020461 348.182513,99.8805365 347.972171,98.6161725 C346.13726,87.6194325 333.721529,41.8964685 252.701774,18.0878657 C251.355269,17.69304 250,18.6777998 250,20.0612259" id="Fill-14" fill="#ABFFFE"></path>
            </g>
        </g>
    </g>
</svg>