<?xml version="1.0" encoding="UTF-8" standalone="no"?>
<svg width="360px" height="530px" viewBox="0 0 360 530" version="1.1" xmlns="http://www.w3.org/2000/svg" xmlns:xlink="http://www.w3.org/1999/xlink">
    <!-- Generator: Sketch 50 (54983) - http://www.bohemiancoding.com/sketch -->
    <title>Group 6</title>
    <desc>Created with Sketch.</desc>
    <defs>
        <polygon id="path-1" points="0.0691515317 0.4521 137.8958 0.4521 137.8958 525 0.0691515317 525"></polygon>
        <polygon id="path-3" points="0.8916 0.306 105.9976 0.306 105.9976 164.2282 0.8916 164.2282"></polygon>
        <polygon id="path-5" points="0.9092 0.272 194.997 0.272 194.997 53.1703992 0.9092 53.1703992"></polygon>
        <polygon id="path-7" points="0.9092 0.0846518818 194.997 0.0846518818 194.997 46.834 0.9092 46.834"></polygon>
    </defs>
    <g id="Page-1" stroke="none" stroke-width="1" fill="none" fill-rule="evenodd">
        <g id="landing" transform="translate(0.000000, -645.000000)">
            <g id="Group-6" transform="translate(-67.000000, 644.000000)">
                <g id="Group-4" transform="translate(0.000000, 1.000000)">
                    <g id="Group-3" transform="translate(190.000000, 102.694000)">
                        <mask id="mask-2" fill="white">
                            <use xlink:href="#path-1"></use>
                        </mask>
                        <g id="Clip-2"></g>
                        <path d="M136.3018,0.4521 C136.3018,0.4521 -120.3912,123.2191 70.9328,525.0001 L77.3098,525.0001 C77.3098,525.0001 -115.6092,161.4831 137.8958,5.2351 L136.3018,0.4521 Z" id="Fill-1" fill="#7C43D6" mask="url(#mask-2)"></path>
                    </g>
                    <path d="M284.9742,140.8307 C284.9742,140.8307 435.5762,144.9377 423.0952,4.1407 L284.9742,140.8307 Z" id="Fill-4" fill="#7C43D6"></path>
                    <path d="M284.9742,140.8307 C284.9742,140.8307 246.1632,43.3477 423.0952,4.1407 L284.9742,140.8307 Z" id="Fill-6" fill="#8A5DE2"></path>
                    <path d="M284.9742,140.8307 C284.9742,140.8307 246.1632,43.3477 423.0952,4.1407 L284.9742,140.8307 Z" id="Fill-6" fill="#8A5DE2"></path>
                    <path d="M197.6548,321.7946 C197.6548,321.7946 325.6678,401.2336 385.8378,273.3306 L197.6548,321.7946 Z" id="Fill-8" fill="#7C43D6"></path>
                    <path d="M197.6548,321.7946 C197.6548,321.7946 213.2568,218.0366 385.8378,273.3306 L197.6548,321.7946 Z" id="Fill-10" fill="#8A5DE2"></path>
                    <path d="M206.5064,460.4167 C206.5064,460.4167 350.0674,506.1107 377.1054,367.3707 L206.5064,460.4167 Z" id="Fill-12" fill="#7C43D6"></path>
                    <path d="M206.5064,460.4167 C206.5064,460.4167 196.2394,355.9957 377.1054,367.3707 L206.5064,460.4167 Z" id="Fill-14" fill="#8A5DE2"></path>
                    <path d="M247.1192,587.2995 C247.1192,587.2995 394.7722,617.2425 406.6872,476.3955 L247.1192,587.2995 Z" id="Fill-16" fill="#7C43D6"></path>
                    <path d="M247.1192,587.2995 C247.1192,587.2995 225.6492,484.5955 406.6872,476.3955 L247.1192,587.2995 Z" id="Fill-18" fill="#8A5DE2"></path>
                    <path d="M57.7075,116.1969 C57.7075,116.1969 92.8085,262.7089 225.5485,214.1299 L57.7075,116.1969 Z" id="Fill-20" fill="#7C43D6"></path>
                    <path d="M57.7075,116.1969 C57.7075,116.1969 141.7855,53.4259 225.5485,214.1299 L57.7075,116.1969 Z" id="Fill-22" fill="#8A5DE2"></path>
                    <path d="M14.6289,240.8454 C14.6289,240.8454 78.2009,377.4334 198.6099,303.3964 L14.6289,240.8454 Z" id="Fill-24" fill="#7C43D6"></path>
                    <path d="M14.6289,240.8454 C14.6289,240.8454 84.5239,162.5904 198.6099,303.3964 L14.6289,240.8454 Z" id="Fill-26" fill="#8A5DE2"></path>
                    <path d="M0,398.7956 C0,398.7956 104.542,507.2796 194.322,398.1056 L0,398.7956 Z" id="Fill-28" fill="#7C43D6"></path>
                    <path d="M0,398.7956 C0,398.7956 40.642,302.0626 194.322,398.1056 L0,398.7956 Z" id="Fill-30" fill="#8A5DE2"></path>
                    <path d="M41.1109,503.5456 C41.1109,503.5456 115.6089,634.4956 229.5799,550.8876 L41.1109,503.5456 Z" id="Fill-32" fill="#7C43D6"></path>
                    <path d="M41.1109,503.5456 C41.1109,503.5456 104.3929,419.8526 229.5799,550.8876 L41.1109,503.5456 Z" id="Fill-34" fill="#8A5DE2"></path>
                    <path d="M155.8916,0.4772 C155.8916,0.4772 120.6696,146.9592 260.9976,163.9222 L155.8916,0.4772 Z" id="Fill-36" fill="#7C43D6"></path>
                </g>
                <g id="Group-40" transform="translate(155.000000, 0.694000)">
                    <mask id="mask-4" fill="white">
                        <use xlink:href="#path-3"></use>
                    </mask>
                    <g id="Clip-39"></g>
                    <path d="M0.8916,0.7832 C0.8916,0.7832 104.3006,-16.9878 105.9976,164.2282 L0.8916,0.7832 Z" id="Fill-38" fill="#8A5DE2" mask="url(#mask-4)"></path>
                </g>
                <g id="Group-43" transform="translate(232.000000, 194.694000)">
                    <mask id="mask-6" fill="white">
                        <use xlink:href="#path-5"></use>
                    </mask>
                    <g id="Clip-42"></g>
                    <path d="M0.9092,9.834 C0.9092,9.834 110.2942,113.433 194.9972,0.272 L0.9092,9.834 Z" id="Fill-41" fill="#7C43D6" mask="url(#mask-6)"></path>
                </g>
                <g id="Group-46" transform="translate(232.000000, 157.694000)">
                    <mask id="mask-8" fill="white">
                        <use xlink:href="#path-7"></use>
                    </mask>
                    <g id="Clip-45"></g>
                    <path d="M0.9092,46.834 C0.9092,46.834 37.0922,-51.654 194.9972,37.272 L0.9092,46.834 Z" id="Fill-44" fill="#8A5DE2" mask="url(#mask-8)"></path>
                </g>
            </g>
        </g>
    </g>
</svg>