<?xml version="1.0" encoding="UTF-8" standalone="no"?>
<svg width="570px" height="2013px" viewBox="0 0 570 2013" version="1.1" xmlns="http://www.w3.org/2000/svg" xmlns:xlink="http://www.w3.org/1999/xlink">
    <!-- Generator: Sketch 50 (54983) - http://www.bohemiancoding.com/sketch -->
    <title>Group 21</title>
    <desc>Created with Sketch.</desc>
    <defs></defs>
    <g id="Page-1" stroke="none" stroke-width="1" fill="none" fill-rule="evenodd">
        <g id="co2" transform="translate(0.000000, -2310.000000)">
            <g id="Group-21" transform="translate(-265.000000, 2310.000000)">
                <path d="M263.159409,57.0064345 C644.38647,-79.0519887 835,28.4396544 835,379.481364 C835,730.523073 709.256044,975.937198 457.768132,1115.72374 C264.351657,1250.94815 275.789266,1339.32517 492.080959,1380.85482 C816.518498,1443.14929 549.478228,1980.4792 263.159409,2012.49252 C72.2801969,2033.83474 72.2801969,1382.00605 263.159409,57.0064345 Z" id="Path-9" fill="#61F97D"></path>
                <path d="M143.159409,57.0064345 C524.38647,-79.0519887 715,28.4396544 715,379.481364 C715,730.523073 589.256044,975.937198 337.768132,1115.72374 C144.351657,1250.94815 155.789266,1339.32517 372.080959,1380.85482 C696.518498,1443.14929 429.478228,1980.4792 143.159409,2012.49252 C-47.7198031,2033.83474 -47.7198031,1382.00605 143.159409,57.0064345 Z" id="Path-9" fill="#3FDB5B"></path>
            </g>
        </g>
    </g>
</svg>