<?xml version="1.0" encoding="UTF-8" standalone="no"?>
<svg width="412px" height="886px" viewBox="0 0 412 886" version="1.1" xmlns="http://www.w3.org/2000/svg" xmlns:xlink="http://www.w3.org/1999/xlink">
    <!-- Generator: Sketch 50 (54983) - http://www.bohemiancoding.com/sketch -->
    <title>Group 23</title>
    <desc>Created with Sketch.</desc>
    <defs>
        <polygon id="path-1" points="0 0.16854222 205.936776 0.16854222 205.936776 376.201023 0 376.201023"></polygon>
        <polygon id="path-3" points="0.125501346 0.184503308 227.681551 0.184503308 227.681551 109 0.125501346 109"></polygon>
        <polygon id="path-5" points="0.139809756 0.614566667 140.41098 0.614566667 140.41098 205.48397 0.139809756 205.48397"></polygon>
    </defs>
    <g id="Page-1" stroke="none" stroke-width="1" fill="none" fill-rule="evenodd">
        <g id="co2" transform="translate(0.000000, -3115.000000)">
            <g id="Group-23" transform="translate(-356.000000, 3075.000000)">
                <g id="Group-10" transform="translate(448.500000, 502.000000) scale(1, -1) rotate(25.000000) translate(-448.500000, -502.000000) translate(146.000000, 90.000000)">
                    <g id="Group-3" transform="translate(164.356523, 213.067619) scale(-1, 1) rotate(21.000000) translate(-164.356523, -213.067619) translate(61.356523, 24.567619)">
                        <mask id="mask-2" fill="white">
                            <use xlink:href="#path-1"></use>
                        </mask>
                        <g id="Clip-2"></g>
                        <path d="M54.2283109,0.291313343 C51.6179833,-0.224260929 48.9739222,0.906780131 47.6004883,3.1930298 C34.6259554,24.7665908 -28.9744757,138.487775 15.6741739,225.684274 C15.6741739,225.684274 23.7766307,241.986088 44.815068,245.039254 C50.7168179,245.896396 52.249281,253.708958 47.0671783,256.670287 L29.0213813,266.983384 C26.3162787,268.530107 25.1452456,271.842672 26.3098533,274.739554 C33.919159,293.686909 64.6664086,359.719084 128.996125,376.012842 C130.094872,376.289963 131.245023,376.256129 132.334132,375.943562 C146.060439,372.007474 233.960209,338.87216 196.883919,143.01355 C195.704854,136.781546 187.134948,136.006574 184.895688,141.937289 C184.78485,142.232133 184.672405,142.528588 184.558353,142.825043 C181.737593,150.23159 170.67623,146.590347 172.708269,138.927624 C176.783593,123.568344 179.838881,107.583931 178.499181,97.5028424 C178.34979,96.3766349 177.837362,95.3454863 177.11129,94.4722324 C168.056264,83.6081158 105.472656,10.4255701 54.2283109,0.291313343" id="Fill-1" fill="#C951EB" mask="url(#mask-2)"></path>
                    </g>
                    <g id="Group-8" transform="translate(131.903852, 79.060445)">
                        <path d="M0.694333821,0.38663146 C0.694333821,0.38663146 132.174587,529.620094 132.174587,703.041529 L162.056756,691.08104 C162.056756,691.08104 75.3997559,224.638126 0.694333821,0.38663146" id="Fill-4" fill="#B643D6"></path>
                        <path d="M369.835022,48.4960513 C376.682684,70.1465184 409.062823,184.100929 361.424115,268.067845 C361.424115,268.067845 352.707005,283.775964 335.930316,286.006159 C331.224463,286.631839 328.869924,294.244818 332.449274,297.340967 L344.910115,308.122661 C346.779564,309.740076 347.193744,313.034572 345.857733,315.83562 C337.12773,334.157727 303.429307,397.856155 251.094416,411.5034 C250.199982,411.735611 249.313605,411.661432 248.515867,411.314728 C238.453076,406.951093 175.206085,371.21476 233.176718,180.303308 C235.020382,174.230341 241.78424,173.782044 242.636773,179.687304 C243.850303,187.943701 252.973534,184.771761 252.540016,177.17652 C251.669755,161.94895 251.682648,146.147302 254.225743,136.300903 C254.509383,135.199512 255.060548,134.206164 255.755145,133.3773 C264.398122,123.04229 323.862703,53.4837539 365.125946,45.4063526 C367.229075,44.9951453 369.109805,46.2029659 369.835022,48.4960513 Z" id="Fill-6" fill="#C951EB"></path>
                        <path d="M325.901151,155.287109 C325.901151,155.287109 182.467707,502.129979 146.922399,743.813438 L129.699298,729.656619 C129.699298,729.656619 212.349876,364.588396 325.901151,155.287109" id="Fill-8" fill="#B643D6"></path>
                        <path d="M469.871006,223.378191 C471.598635,223.550737 472.776709,224.927878 472.802495,226.877484 C473.057127,245.281833 471.556733,341.285029 414.968846,395.298316 C414.968846,395.298316 404.533778,405.44788 390.99478,403.254774 C387.196254,402.63877 383.589507,407.995752 385.644289,411.237033 L392.793318,422.518626 C393.86664,424.21022 393.418617,426.862911 391.726443,428.725438 C380.670911,440.900399 339.636514,482.446849 295.835012,480.792344 C295.087232,480.76493 294.416809,480.498855 293.878537,480.044108 C287.090505,474.301719 246.360699,431.774822 335.955635,297.189094 C338.806544,292.9077 344.160258,294.142935 343.441487,298.922615 C343.406032,299.161276 343.370577,299.399938 343.335122,299.640212 C342.45358,305.614812 350.274644,305.287459 351.712185,299.291895 C354.595326,287.273354 358.298769,275.014539 362.572715,267.965962 C363.049747,267.179024 363.708888,266.537218 364.442163,266.055058 C373.565395,260.057881 435.961465,219.99339 469.871006,223.378191" id="Fill-10" fill="#C951EB"></path>
                        <path d="M414.253713,299.669653 C414.253713,299.669653 221.901957,535.264019 137.844457,714.495571 L127.788113,699.479248 C127.788113,699.479248 277.229577,435.522868 414.253713,299.669653" id="Fill-12" fill="#B643D6"></path>
                        <path d="M163.862031,234.770324 C162.674286,234.362342 161.238357,235.007373 160.252061,236.431279 C150.935439,249.860826 104.142818,320.80134 113.364357,377.986568 C113.364357,377.986568 114.969504,388.671507 124.69386,391.254857 C127.422288,391.980517 127.056456,397.03111 124.136248,398.772694 L113.965481,404.837598 C112.439302,405.748704 111.40627,407.83538 111.55776,409.725321 C112.552113,422.088953 118.054094,465.302808 146.808147,477.661603 C147.299683,477.871238 147.858906,477.884139 148.42941,477.716431 C155.613895,475.605567 202.738504,457.007709 212.545051,330.449392 C212.8577,326.422786 208.828716,325.669712 206.909308,329.402829 C206.814224,329.588276 206.717528,329.773722 206.620833,329.960781 C204.2115,334.619518 199.386389,331.957152 201.45084,327.109744 C205.592636,317.393964 209.32831,307.247625 210.10671,300.75055 C210.193736,300.023278 210.093817,299.347608 209.864971,298.76708 C207.031789,291.537894 187.168898,242.792898 163.862031,234.770324" id="Fill-14" fill="#C951EB"></path>
                        <path d="M162.630353,308.275235 C162.630353,308.275235 168.109772,540.823442 132.566075,698.441616 L146.44673,690.533535 C146.44673,690.533535 182.438451,450.461042 162.630353,308.275235" id="Fill-16" fill="#B643D6"></path>
                    </g>
                </g>
                <g id="Group-8" transform="translate(448.000000, 271.000000) rotate(90.000000) translate(-448.000000, -271.000000) translate(201.000000, 167.000000)">
                    <path d="M248,208 L0,208 C0,208 117.111111,104.5 248,208" id="Fill-1" fill="#B643D6"></path>
                    <path d="M246,208 C246,208 363.111111,104.5 494,208 L246,208 Z" id="Fill-3" fill="#B643D6"></path>
                    <g id="Group-7" transform="translate(22.000000, 99.000000)">
                        <mask id="mask-4" fill="white">
                            <use xlink:href="#path-3"></use>
                        </mask>
                        <g id="Clip-6"></g>
                        <path d="M227.681551,109.000348 L0.125501346,7.31437109 C0.125501346,7.31437109 149.734672,-39.9703555 227.681551,109.000348" id="Fill-5" fill="#B643D6" mask="url(#mask-4)"></path>
                    </g>
                    <path d="M246,208 L472,104.016206 C472,104.016206 321.268658,60.408779 246,208" id="Fill-8" fill="#B643D6"></path>
                    <g id="Group-12" transform="translate(109.000000, 0.000000)">
                        <mask id="mask-6" fill="white">
                            <use xlink:href="#path-5"></use>
                        </mask>
                        <g id="Clip-11"></g>
                        <path d="M139.684249,205.48397 L0.139809756,0.613536667 C0.139809756,0.613536667 152.149078,39.7192033 139.684249,205.48397" id="Fill-10" fill="#B643D6" mask="url(#mask-6)"></path>
                    </g>
                    <path d="M246.274,206 L392,4 C392,4 238.66647,38.9246687 246.274,206" id="Fill-13" fill="#B643D6"></path>
                </g>
            </g>
        </g>
    </g>
</svg>