<?xml version="1.0" encoding="UTF-8" standalone="no"?>
<svg width="136px" height="173px" viewBox="0 0 136 173" version="1.1" xmlns="http://www.w3.org/2000/svg" xmlns:xlink="http://www.w3.org/1999/xlink">
    <!-- Generator: Sketch 50 (54983) - http://www.bohemiancoding.com/sketch -->
    <title>Group 26</title>
    <desc>Created with Sketch.</desc>
    <defs>
        <path d="M0,66.4253049 C0,86.6740854 9.20710843,104.807393 23.7258434,116.990701 L23.6911446,116.993369 C23.7529518,117.034451 23.8158434,117.076601 23.8776506,117.117683 C25.2574699,118.268521 26.6839157,119.366006 28.1553614,120.406402 C33.4631928,125.166082 35.6193976,130.39314 34.6266867,136.08811 C34.5193373,136.706479 34.4553614,137.219207 34.438012,137.624162 C34.2520482,139.031098 34.1571687,140.464177 34.1571687,141.920198 C34.1571687,160.189558 49.2066867,175 67.7710843,175 C86.3365663,175 101.385,160.189558 101.385,141.920198 C101.385,139.84154 101.190361,137.808232 100.817892,135.83468 C100.968072,135.458537 100.933373,134.643826 100.71488,133.391082 C100.088675,129.801448 100.714337,126.398552 102.591325,123.180259 C122.024819,111.51875 135,90.4627287 135,66.4253049 C135,29.7398628 104.779518,0.000533536585 67.4994578,0.000533536585 C30.2210241,0.000533536585 0,29.7398628 0,66.4253049 Z" id="path-1"></path>
    </defs>
    <g id="Page-1" stroke="none" stroke-width="1" fill="none" fill-rule="evenodd">
        <g id="co2" transform="translate(-264.000000, -5269.000000)">
            <g id="Group-26" transform="translate(337.276468, 5356.076337) rotate(-15.000000) translate(-337.276468, -5356.076337) translate(269.776468, 5268.576337)">
                <g id="Group-3">
                    <mask id="mask-2" fill="white">
                        <use xlink:href="#path-1"></use>
                    </mask>
                    <g id="Clip-2"></g>
                    <polygon id="Fill-1" fill="#D3FCFF" mask="url(#mask-2)" points="-2.71084337 177.667683 137.710843 177.667683 137.710843 -2.66768293 -2.71084337 -2.66768293"></polygon>
                </g>
                <g id="Group-10" transform="translate(34.000000, 32.000000)">
                    <path d="M0.53968254,108.574074 C0.53968254,108.574074 34.5396825,100.1 67.4603175,108.574074 C67.4603175,108.574074 35.0793651,135.055556 0.53968254,108.574074" id="Fill-4" fill="#00EDFF"></path>
                    <path d="M28.6031746,124.462963 C28.6031746,124.462963 32.6507937,92.95 21.3174603,81.8277778 C9.98412698,70.7055556 25.0952381,39.4574074 25.0952381,39.4574074 C25.0952381,39.4574074 29.4126984,33.6314815 26.1746032,24.0981481 L31.5714286,23.0388889 L34.8095238,18.8018519 L39.6666667,18.8018519 L42.3650794,12.4462963 L44.5238095,11.387037 L49.9206349,3.44259259 L55.047619,0 C45.3333333,4.76666667 49.1111111,21.7148148 49.1111111,21.7148148 C49.1111111,21.7148148 56.3968254,57.9944444 45.8730159,66.2037037 C35.4387937,74.3430519 40.0444444,119.941515 40.0444444,119.941515" id="Stroke-6" stroke="#383838"></path>
                    <path d="M0.53968254,108.574074 C0.53968254,108.574074 -3.23809524,139.822222 32.5655238,142.491556 C32.5655238,142.491556 68,143.52963 67.4603175,108.574074 C67.4603175,108.574074 43.5502222,121.039437 0.53968254,108.574074" id="Fill-8" fill="#63F4FF"></path>
                </g>
            </g>
        </g>
    </g>
</svg>