<?xml version="1.0" encoding="UTF-8" standalone="no"?>
<svg width="327px" height="308px" viewBox="0 0 327 308" version="1.1" xmlns="http://www.w3.org/2000/svg" xmlns:xlink="http://www.w3.org/1999/xlink">
    <!-- Generator: Sketch 50 (54983) - http://www.bohemiancoding.com/sketch -->
    <title>Group 14</title>
    <desc>Created with Sketch.</desc>
    <defs>
        <polygon id="path-1" points="0 0.81404916 303.94768 0.81404916 303.94768 172.782835 0 172.782835"></polygon>
    </defs>
    <g id="Page-1" stroke="none" stroke-width="1" fill="none" fill-rule="evenodd">
        <g id="co2" transform="translate(-163.000000, -4339.000000)">
            <g id="Group-14" transform="translate(163.000000, 4339.000000)">
                <path d="M76,109.65066 C76,109.65066 144.174,120.04766 160.582,143.50266 C160.582,143.50266 238.781,64.3896598 246.363,41.4016598 C246.363,41.4016598 250.078,5.16365977 205.003,0.141659771 C198.646,-0.566340229 191.996,1.39565977 186.396,5.66565977 C161.285,24.8126598 85.696,83.9836598 76,109.65066" id="Fill-1" fill="#FFA459"></path>
                <g id="Group-5" transform="translate(0.000000, 45.000000)">
                    <mask id="mask-2" fill="white">
                        <use xlink:href="#path-1"></use>
                    </mask>
                    <g id="Clip-4"></g>
                    <path d="M285.8086,70.2048 C285.8086,70.2048 141.5446,-60.6842 25.7766,37.0668 C19.6736,42.2208 14.4806,48.3798 10.6276,55.3768 C1.7956,71.4138 -9.3874,101.7648 13.6456,126.5828 C17.3156,130.5378 21.6846,133.7758 26.4896,136.2318 C53.4086,149.9868 171.1796,203.5968 275.8086,148.2048 C275.8086,148.2048 331.8086,109.2048 285.8086,70.2048" id="Fill-3" fill="#FF9237" mask="url(#mask-2)"></path>
                </g>
                <path d="M300.181,155.29208 L325.376,105.53308 C325.376,105.53308 298.547,63.2570798 280.66,103.09508 L261,154.56708 L300.181,155.29208 Z" id="Fill-6" fill="#FF9237"></path>
                <path d="M300.181,155.725 L326.724,199.825 C326.724,199.825 316.877,218.712 300.278,200.038 L261,155 L300.181,155.725 Z" id="Fill-8" fill="#FFA459"></path>
                <path d="M98.0430589,177 C98.0430589,177 164.480059,191.301 189.017059,178.35 C189.017059,178.35 228.082059,265.982 225.621059,286.463 C225.621059,286.463 214.226059,316.039 171.055059,305.134 C164.967059,303.597 159.701059,299.873 156.334059,294.689 C141.237059,271.444 96.4180589,200.273 98.0430589,177" id="Fill-10" fill="#FFA459"></path>
                <path d="M147.278,113.64 C147.278,126.143 137.142,136.279 124.639,136.279 C112.135,136.279 102,126.143 102,113.64 C102,101.136 112.135,91 124.639,91 C137.142,91 147.278,101.136 147.278,113.64" id="Fill-14" fill="#ABFFFE"></path>
                <path d="M198.886,120.943 C198.886,131.405 190.406,139.886 179.944,139.886 C169.482,139.886 161,131.405 161,120.943 C161,110.481 169.482,102 179.944,102 C190.406,102 198.886,110.481 198.886,120.943" id="Fill-16" fill="#ABFFFE"></path>
                <path d="M246.266,131.633 C246.266,140.82 238.819,148.266 229.633,148.266 C220.447,148.266 213,140.82 213,131.633 C213,122.446 220.447,115 229.633,115 C238.819,115 246.266,122.446 246.266,131.633" id="Fill-18" fill="#ABFFFE"></path>
                <path d="M79.9555282,72.1043207 C69.6595282,75.3523207 38.1685282,87.1673207 27.1785282,112.942321 C26.6565282,114.165321 27.3235282,115.572321 28.6025282,115.934321 L72.8265282,128.452321 C74.1105282,128.815321 75.4195282,127.959321 75.6015282,126.637321 L82.7925282,74.5003207 C83.0135282,72.9003207 81.4955282,71.6183207 79.9555282,72.1043207" id="Fill-1" fill="#ABFFFE"></path>
            </g>
        </g>
    </g>
</svg>