<?xml version="1.0" encoding="UTF-8" standalone="no"?>
<svg width="635px" height="637px" viewBox="0 0 635 637" version="1.1" xmlns="http://www.w3.org/2000/svg" xmlns:xlink="http://www.w3.org/1999/xlink">
    <!-- Generator: Sketch 50 (54983) - http://www.bohemiancoding.com/sketch -->
    <title>Group 4</title>
    <desc>Created with Sketch.</desc>
    <defs>
        <polygon id="path-1" points="0 0 157.999868 0 157.999868 29.6416938 0 29.6416938"></polygon>
    </defs>
    <g id="Page-1" stroke="none" stroke-width="1" fill="none" fill-rule="evenodd">
        <g id="plant" transform="translate(-403.000000, -201.000000)">
            <g id="Group-4" transform="translate(403.000000, 201.000000)">
                <g id="Group-3">
                    <g id="Group-2">
                        <ellipse id="Oval-2" fill="#E2FDFF" cx="317.5" cy="318.5" rx="317.411111" ry="318.5"></ellipse>
                        <ellipse id="Oval-2" fill="#BAFAFF" cx="317.5" cy="312.9233" rx="233.961538" ry="234.507959"></ellipse>
                        <ellipse id="Oval-2" fill="#93F7FF" cx="316.230769" cy="312.9233" rx="146.384615" ry="146.46165"></ellipse>
                    </g>
                    <g id="Group" transform="translate(238.000000, 157.000000)">
                        <path d="M99.7005348,56.742671 C99.7005348,56.742671 57.7402406,113.44238 78.3650821,141.433225 L81.2092824,140.715647 C81.2092824,140.715647 59.1627797,123.49024 99.7005348,56.742671" id="Fill-1" fill="#0B2212"></path>
                        <path d="M74.7757813,106.710098 C74.7757813,106.710098 76.1837275,72.8336538 43.0909091,38.9576547 C43.0909091,38.9576547 72.2792842,63.2069698 76.8877005,101.312909 L74.7757813,106.710098 Z" id="Fill-3" fill="#0B2212"></path>
                        <path d="M30.6930911,0 C30.6930911,0 6.75778636,70.0610481 69.2834225,77.0684039 L30.6930911,0 Z" id="Fill-5" fill="#0F9828"></path>
                        <path d="M69.0133003,77.0684039 L30.4171123,0 C30.4171123,0 90.0496365,16.494808 69.0133003,77.0684039" id="Fill-7" fill="#33C04D"></path>
                        <g id="Group-11" transform="translate(0.000000, 125.342020)">
                            <mask id="mask-2" fill="white">
                                <use xlink:href="#path-1"></use>
                            </mask>
                            <g id="Clip-10"></g>
                            <path d="M153.981402,29.6416938 L4.01877389,29.6416938 C1.79931278,29.6416938 -0.000131666667,27.8277991 -0.000131666667,25.5909573 L-0.000131666667,4.05073655 C-0.000131666667,1.8138947 1.79931278,0 4.01877389,0 L153.981402,0 C156.200863,0 157.999868,1.8138947 157.999868,4.05073655 L157.999868,25.5909573 C157.999868,27.8277991 156.200863,29.6416938 153.981402,29.6416938" id="Fill-9" fill="#7C43D6" mask="url(#mask-2)"></path>
                        </g>
                        <path d="M16.0184339,153.289907 L144.525673,153.548933 C146.073136,153.552476 147.244118,155.121247 146.978264,156.833922 L131.317795,257.678945 C131.109222,259.02057 130.072478,260 128.860393,260 L34.1774077,260 C32.9902466,260 31.9674952,259.059534 31.7326866,257.752004 L13.568903,156.647511 C13.2566993,154.909598 14.4407996,153.286807 16.0184339,153.289907" id="Fill-12" fill="#8A5DE2"></path>
                    </g>
                </g>
            </g>
        </g>
    </g>
</svg>