<?xml version="1.0" encoding="UTF-8" standalone="no"?>
<svg width="389px" height="1636px" viewBox="0 0 389 1636" version="1.1" xmlns="http://www.w3.org/2000/svg" xmlns:xlink="http://www.w3.org/1999/xlink">
    <!-- Generator: Sketch 50 (54983) - http://www.bohemiancoding.com/sketch -->
    <title>Group 5</title>
    <desc>Created with Sketch.</desc>
    <defs></defs>
    <g id="Page-1" stroke="none" stroke-width="1" fill="none" fill-rule="evenodd">
        <g id="co2" transform="translate(-1051.000000, -725.000000)">
            <g id="Group-5" transform="translate(1449.410295, 1527.000000) scale(1, -1) rotate(-5.000000) translate(-1449.410295, -1527.000000) translate(1056.410295, 690.500000)">
                <path d="M669,274.061261 C449.756778,-43.4463722 264.549574,-25.0084833 113.378389,329.374928 C-37.7927963,683.758339 -37.7927963,944.97098 113.378389,1113.01285 C151.773574,1151.9521 198.225972,1178.76572 252.735583,1193.45369 C307.245194,1208.14167 317.929013,1299.11004 284.787038,1466.3588 C262.997005,1585.05609 296.684542,1652.54439 385.84965,1668.82369 C475.014758,1685.103 569.398208,1653.7896 669,1574.88351 L669,274.061261 Z" id="Path-8" fill="#A4F9FF"></path>
                <path d="M786,225.061261 C566.756778,-92.4463722 381.549574,-74.0084833 230.378389,280.374928 C79.2072037,634.758339 79.2072037,895.97098 230.378389,1064.01285 C268.773574,1102.9521 315.225972,1129.76572 369.735583,1144.45369 C424.245194,1159.14167 434.929013,1250.11004 401.787038,1417.3588 C379.997005,1536.05609 413.684542,1603.54439 502.84965,1619.82369 C592.014758,1636.103 686.398208,1604.7896 786,1525.88351 L786,225.061261 Z" id="Path-8" fill="#70F3FD"></path>
            </g>
        </g>
    </g>
</svg>