<?xml version="1.0" encoding="UTF-8" standalone="no"?>
<svg width="797px" height="3481px" viewBox="0 0 797 3481" version="1.1" xmlns="http://www.w3.org/2000/svg" xmlns:xlink="http://www.w3.org/1999/xlink">
    <!-- Generator: Sketch 50 (54983) - http://www.bohemiancoding.com/sketch -->
    <title>Group 22</title>
    <desc>Created with Sketch.</desc>
    <defs></defs>
    <g id="Page-1" stroke="none" stroke-width="1" fill="none" fill-rule="evenodd">
        <g id="co2" transform="translate(-643.000000, -2932.000000)">
            <g id="Group-22" transform="translate(490.000000, 2749.000000)">
                <path d="M1077.4273,58 C712.81509,411.53068 512.79449,644.797613 477.365497,757.800798 C424.222007,927.305575 432.355312,1223.36218 866.695273,1518.96545 C1156.25525,1716.0343 1055.87495,1938.76597 565.55438,2187.16046 C223.898771,2406.94226 261.638507,2610.53757 678.773588,2797.94639 C1304.47621,3079.05962 826.041807,3553.53546 477.365497,3553.53546 C128.689187,3553.53546 -436.962855,4034.30003 565.55438,4296.35254 C1233.8992,4471.05422 1560.19992,4133.06137 1544.45653,3282.37399 L1077.4273,58 Z" id="Path-10" fill="#61F97D"></path>
                <path d="M1270.4273,0 C902.607388,353.408273 702.586787,586.675206 670.365497,699.800798 C622.033562,869.489186 625.355312,1165.36218 1059.69527,1460.96545 C1349.25525,1658.0343 1248.87495,1880.76597 758.55438,2129.16046 C416.898771,2348.94226 454.638507,2552.53757 871.773588,2739.94639 C1497.47621,3021.05962 1019.04181,3495.53546 670.365497,3495.53546 C321.689187,3495.53546 -243.962855,3976.30003 758.55438,4238.35254 C1426.8992,4413.05422 1753.19992,4075.06137 1737.45653,3224.37399 L1270.4273,0 Z" id="Path-10" fill="#3FDB5B"></path>
            </g>
        </g>
    </g>
</svg>