<?xml version="1.0" encoding="UTF-8" standalone="no"?>
<svg width="372px" height="805px" viewBox="0 0 372 805" version="1.1" xmlns="http://www.w3.org/2000/svg" xmlns:xlink="http://www.w3.org/1999/xlink">
    <!-- Generator: Sketch 50 (54983) - http://www.bohemiancoding.com/sketch -->
    <title>Group 24</title>
    <desc>Created with Sketch.</desc>
    <defs>
        <polygon id="path-1" points="0.0534467976 0.344946603 106.578824 0.344946603 106.578824 400.568385 0.0534467976 400.568385"></polygon>
        <polygon id="path-3" points="0.692533819 0.233962073 82.3316765 0.233962073 82.3316765 125.565916 0.692533819 125.565916"></polygon>
        <polygon id="path-5" points="0.706698143 0.208725289 151.566232 0.208725289 151.566232 40.801496 0.706698143 40.801496"></polygon>
        <polygon id="path-7" points="0.706698143 0.0646830929 151.566232 0.0646830929 151.566232 35.7861858 0.706698143 35.7861858"></polygon>
        <polygon id="path-9" points="0.145867792 0.256131897 264.629873 0.256131897 264.629873 151.316402 0.145867792 151.316402"></polygon>
        <polygon id="path-11" points="0.163607161 0.0120501475 164.310721 0.0120501475 164.310721 284.283969 0.163607161 284.283969"></polygon>
        <polygon id="path-13" points="0.145867792 0.256131897 264.629873 0.256131897 264.629873 151.316402 0.145867792 151.316402"></polygon>
        <polygon id="path-15" points="0.163607161 0.0120501475 164.310721 0.0120501475 164.310721 284.283969 0.163607161 284.283969"></polygon>
    </defs>
    <g id="Page-1" stroke="none" stroke-width="1" fill="none" fill-rule="evenodd">
        <g id="co2" transform="translate(-1068.000000, -2618.000000)">
            <g id="Group-24" transform="translate(-315.000000, -996.000000)">
                <g id="Group-5" transform="translate(979.500000, 2026.000000) scale(-1, 1) translate(-979.500000, -2026.000000) ">
                    <g id="Group-Copy" transform="translate(289.882841, 3792.242475) rotate(62.000000) translate(-289.882841, -3792.242475) translate(123.882841, 3552.242475)">
                        <g id="Group-3" transform="translate(147.826130, 78.271983)">
                            <mask id="mask-2" fill="white">
                                <use xlink:href="#path-1"></use>
                            </mask>
                            <g id="Clip-2"></g>
                            <path d="M105.346831,0.344946603 C105.346831,0.344946603 -93.0496252,94.0146207 54.8235291,400.568461 L59.7522735,400.568461 C59.7522735,400.568461 -89.3536465,123.209571 106.578824,3.99431534 L105.346831,0.344946603 Z" id="Fill-1" fill="#B643D6" mask="url(#mask-2)"></path>
                        </g>
                        <path d="M220.803586,106.808737 C220.803586,106.808737 337.50013,109.934918 327.829013,2.76254058 L220.803586,106.808737 Z" id="Fill-4" fill="#B643D6"></path>
                        <path d="M220.784059,106.818236 C220.784059,106.818236 190.808065,32.6089935 327.462946,2.76254058 L220.784059,106.818236 Z" id="Fill-6" fill="#C951EB"></path>
                        <path d="M153.43978,244.869668 C153.43978,244.869668 252.726784,305.121417 299.394693,208.111391 L153.43978,244.869668 Z" id="Fill-8" fill="#B643D6"></path>
                        <path d="M153.43978,245.866112 C153.43978,245.866112 165.540706,166.110405 299.394693,208.613268 L153.43978,245.866112 Z" id="Fill-10" fill="#C951EB"></path>
                        <path d="M159.989039,350.873962 C159.989039,350.873962 271.001883,385.710206 291.909826,279.937446 L159.989039,350.873962 Z" id="Fill-12" fill="#B643D6"></path>
                        <path d="M160.072102,350.842654 C160.072102,350.842654 152.081529,270.979214 292.845434,279.679061 L160.072102,350.842654 Z" id="Fill-14" fill="#C951EB"></path>
                        <path d="M191.799725,447.342017 C191.799725,447.342017 306.078224,470.16385 315.300036,362.813663 L191.799725,447.342017 Z" id="Fill-16" fill="#B643D6"></path>
                        <path d="M191.476471,447.531575 C191.476471,447.531575 174.815913,369.077521 315.300036,362.813663 L191.476471,447.531575 Z" id="Fill-18" fill="#C951EB"></path>
                        <path d="M44.909204,88.4012987 C44.909204,88.4012987 72.1067895,199.783138 174.958774,162.852249 L44.909204,88.4012987 Z" id="Fill-20" fill="#B643D6"></path>
                        <path d="M44.909204,88.3902493 C44.909204,88.3902493 110.056026,40.5749641 174.958774,162.989894 L44.909204,88.3902493 Z" id="Fill-22" fill="#C951EB"></path>
                        <path d="M11.227301,183.248525 C11.227301,183.248525 60.6900729,287.382471 154.375389,230.937066 L11.227301,183.248525 Z" id="Fill-24" fill="#B643D6"></path>
                        <path d="M11.227301,183.267139 C11.227301,183.267139 65.6097404,123.384665 154.375389,231.132562 L11.227301,183.267139 Z" id="Fill-26" fill="#C951EB"></path>
                        <path d="M0,304.401326 C0,304.401326 81.0380213,386.450159 150.632955,303.879464 L0,304.401326 Z" id="Fill-28" fill="#B643D6"></path>
                        <path d="M0,303.879464 C0,303.879464 31.5045366,229.645142 150.632955,303.349948 L0,303.879464 Z" id="Fill-30" fill="#C951EB"></path>
                        <path d="M120.924924,6.82121026e-13 C120.924924,6.82121026e-13 93.7252758,111.41247 202.091418,124.314326 L120.924924,6.82121026e-13 Z" id="Fill-36" fill="#B643D6"></path>
                        <g id="Group-40" transform="translate(120.693486, 0.000000)">
                            <mask id="mask-4" fill="white">
                                <use xlink:href="#path-3"></use>
                            </mask>
                            <g id="Clip-39"></g>
                            <path d="M0.692533819,0.598820575 C0.692533819,0.598820575 81.0135631,-12.9885651 82.3316765,125.565916 L0.692533819,0.598820575 Z" id="Fill-38" fill="#C951EB" mask="url(#mask-4)"></path>
                        </g>
                        <g id="Group-43" transform="translate(179.636816, 147.335498)">
                            <mask id="mask-6" fill="white">
                                <use xlink:href="#path-5"></use>
                            </mask>
                            <g id="Clip-42"></g>
                            <path d="M0.706698143,7.54634003 C0.706698143,7.54634003 85.7288895,87.0453517 151.566387,0.208725289 L0.706698143,7.54634003 Z" id="Fill-41" fill="#B643D6" mask="url(#mask-6)"></path>
                        </g>
                        <g id="Group-46" transform="translate(179.636816, 119.710092)">
                            <mask id="mask-8" fill="white">
                                <use xlink:href="#path-7"></use>
                            </mask>
                            <g id="Clip-45"></g>
                            <path d="M0.706698143,35.7861858 C0.706698143,35.7861858 28.830828,-39.4691814 151.566387,28.479795 L0.706698143,35.7861858 Z" id="Fill-44" fill="#C951EB" mask="url(#mask-8)"></path>
                        </g>
                    </g>
                </g>
                <g id="Group-9" transform="translate(1635.500000, 4146.000000) rotate(-90.000000) translate(-1635.500000, -4146.000000) translate(1355.000000, 4001.000000)">
                    <path d="M291,290 L0,290 C0,290 137.416667,152.75 291,290" id="Fill-1" fill="#7C43D6"></path>
                    <path d="M270,290 C270,290 407.416667,152.75 561,290 L270,290 Z" id="Fill-3" fill="#7C43D6"></path>
                    <g id="Group-7" transform="translate(8.000000, 138.000000)">
                        <mask id="mask-10" fill="white">
                            <use xlink:href="#path-9"></use>
                        </mask>
                        <g id="Clip-6"></g>
                        <path d="M264.629873,151.316885 L0.145867792,10.1539846 C0.145867792,10.1539846 174.03372,-55.4878017 264.629873,151.316885" id="Fill-5" fill="#7C43D6" mask="url(#mask-10)"></path>
                    </g>
                    <path d="M262,290 L527,146.313303 C527,146.313303 350.257497,86.0557674 262,290" id="Fill-8" fill="#7C43D6"></path>
                    <g id="Group-12" transform="translate(105.000000, 0.000000)">
                        <mask id="mask-12" fill="white">
                            <use xlink:href="#path-11"></use>
                        </mask>
                        <g id="Clip-11"></g>
                        <path d="M163.460291,284.283969 L0.163607161,0.010620944 C0.163607161,0.010620944 178.046793,54.2727153 163.460291,284.283969" id="Fill-10" fill="#7C43D6" mask="url(#mask-12)"></path>
                    </g>
                    <path d="M262.319041,290 L432,7 C432,7 253.460959,55.929115 262.319041,290" id="Fill-13" fill="#7C43D6"></path>
                </g>
                <g id="Group-9" transform="translate(1686.000000, 4146.500000) rotate(-90.000000) translate(-1686.000000, -4146.500000) translate(1405.500000, 4001.500000)">
                    <g id="Group-7" transform="translate(8.000000, 138.000000)">
                        <mask id="mask-14" fill="white">
                            <use xlink:href="#path-13"></use>
                        </mask>
                        <g id="Clip-6"></g>
                        <path d="M264.629873,151.316885 L0.145867792,10.1539846 C0.145867792,10.1539846 174.03372,-55.4878017 264.629873,151.316885" id="Fill-5" fill="#8A5DE2" mask="url(#mask-14)"></path>
                    </g>
                    <path d="M527,146.313303 C527,146.313303 350.257497,86.0557674 262,290 L527,146.313303 Z" id="Fill-8" fill="#8A5DE2"></path>
                    <g id="Group-12" transform="translate(105.000000, 0.000000)">
                        <mask id="mask-16" fill="white">
                            <use xlink:href="#path-15"></use>
                        </mask>
                        <g id="Clip-11"></g>
                        <path d="M163.460291,284.283969 L0.163607161,0.010620944 C0.163607161,0.010620944 178.046793,54.2727153 163.460291,284.283969" id="Fill-10" fill="#8A5DE2" mask="url(#mask-16)"></path>
                    </g>
                    <path d="M262.319041,290 L432,7 C432,7 253.460959,55.929115 262.319041,290" id="Fill-13" fill="#8A5DE2"></path>
                </g>
            </g>
        </g>
    </g>
</svg>