<?xml version="1.0" encoding="UTF-8" standalone="no"?>
<svg width="307px" height="466px" viewBox="0 0 307 466" version="1.1" xmlns="http://www.w3.org/2000/svg" xmlns:xlink="http://www.w3.org/1999/xlink">
    <!-- Generator: Sketch 50 (54983) - http://www.bohemiancoding.com/sketch -->
    <title>Group 2</title>
    <desc>Created with Sketch.</desc>
    <defs>
        <polygon id="path-1" points="0.0571251783 0.374597143 113.913922 0.374597143 113.913922 435 0.0571251783 435"></polygon>
    </defs>
    <g id="Page-1" stroke="none" stroke-width="1" fill="none" fill-rule="evenodd">
        <g id="landing" transform="translate(-1133.000000, -709.000000)">
            <g id="Group-2" transform="translate(1133.000000, 709.000000)">
                <g id="Group-3" transform="translate(136.000000, 302.500000) scale(-1, 1) translate(-136.000000, -302.500000) translate(79.000000, 85.000000)">
                    <mask id="mask-2" fill="white">
                        <use xlink:href="#path-1"></use>
                    </mask>
                    <g id="Clip-2"></g>
                    <path d="M112.597139,0.374597143 C112.597139,0.374597143 -99.4536,102.095826 58.5966609,435.000083 L63.8646174,435.000083 C63.8646174,435.000083 -95.5032522,133.800283 113.913922,4.33765429 L112.597139,0.374597143 Z" id="Fill-1" fill="#7C43D6" mask="url(#mask-2)"></path>
                </g>
                <path d="M0,115.989684 C0,115.989684 124.727976,119.384582 114.391261,3 L0,115.989684 Z" id="Fill-4" fill="#7C43D6" transform="translate(57.500000, 59.500000) scale(-1, 1) translate(-57.500000, -59.500000) "></path>
                <path d="M3.9791288,116 C3.9791288,116 -28.0599097,35.4119614 118,3 L3.9791288,116 Z" id="Fill-6" fill="#8A5DE2" transform="translate(59.500000, 59.500000) scale(-1, 1) translate(-59.500000, -59.500000) "></path>
                <path d="M31,265.917905 C31,265.917905 137.120255,331.348707 187,226 L31,265.917905 Z" id="Fill-8" fill="#7C43D6" transform="translate(109.000000, 256.000000) scale(-1, 1) translate(-109.000000, -256.000000) "></path>
                <path d="M31,267 C31,267 43.9337507,180.38874 187,226.545017 L31,267 Z" id="Fill-10" fill="#8A5DE2" transform="translate(109.000000, 240.000000) scale(-1, 1) translate(-109.000000, -240.000000) "></path>
                <path d="M39,381.033999 C39,381.033999 157.653105,418.864658 180,304 L39,381.033999 Z" id="Fill-12" fill="#7C43D6" transform="translate(109.500000, 345.500000) scale(-1, 1) translate(-109.500000, -345.500000) "></path>
                <path d="M38.0887794,381 C38.0887794,381 29.5482691,294.271747 180,303.719405 L38.0887794,381 Z" id="Fill-14" fill="#8A5DE2" transform="translate(109.000000, 342.000000) scale(-1, 1) translate(-109.000000, -342.000000) "></path>
                <path d="M14,485.794149 C14,485.794149 136.143512,510.577675 146,394 L14,485.794149 Z" id="Fill-16" fill="#7C43D6" transform="translate(80.000000, 441.000000) scale(-1, 1) translate(-80.000000, -441.000000) "></path>
                <path d="M14.6544987,486 C14.6544987,486 -3.15269268,400.802279 147,394 L14.6544987,486 Z" id="Fill-18" fill="#8A5DE2" transform="translate(80.500000, 440.000000) scale(-1, 1) translate(-80.500000, -440.000000) "></path>
                <path d="M164,96 C164,96 193.069411,216.955877 303,176.850523 L164,96 Z" id="Fill-20" fill="#7C43D6" transform="translate(233.500000, 140.500000) scale(-1, 1) translate(-233.500000, -140.500000) "></path>
                <path d="M164,95.9880009 C164,95.9880009 233.630436,44.0626621 303,177 L164,95.9880009 Z" id="Fill-22" fill="#8A5DE2" transform="translate(233.500000, 131.500000) scale(-1, 1) translate(-233.500000, -131.500000) "></path>
                <path d="M186,199 C186,199 238.866959,312.084976 339,250.7877 L186,199 Z" id="Fill-24" fill="#7C43D6" transform="translate(262.500000, 234.000000) scale(-1, 1) translate(-262.500000, -234.000000) "></path>
                <path d="M186,199.020214 C186,199.020214 244.125214,133.990428 339,251 L186,199.020214 Z" id="Fill-26" fill="#8A5DE2" transform="translate(262.500000, 216.000000) scale(-1, 1) translate(-262.500000, -216.000000) "></path>
                <path d="M190,330.56672 C190,330.56672 276.615319,419.668215 351,330 L190,330.56672 Z" id="Fill-28" fill="#7C43D6" transform="translate(270.500000, 350.000000) scale(-1, 1) translate(-270.500000, -350.000000) "></path>
                <path d="M190,330 C190,330 223.67278,249.384726 351,329.424968 L190,330 Z" id="Fill-30" fill="#8A5DE2" transform="translate(270.500000, 312.000000) scale(-1, 1) translate(-270.500000, -312.000000) "></path>
                <path d="M161,417 C161,417 222.663658,524.903842 317,456.010185 L161,417 Z" id="Fill-32" fill="#7C43D6" transform="translate(239.000000, 448.000000) scale(-1, 1) translate(-239.000000, -448.000000) "></path>
                <path d="M161,416.801665 C161,416.801665 213.379925,347.505347 317,456 L161,416.801665 Z" id="Fill-34" fill="#8A5DE2" transform="translate(239.000000, 425.500000) scale(-1, 1) translate(-239.000000, -425.500000) "></path>
                <path d="M138.247367,0 C138.247367,0 109.175751,120.98914 225,135 L138.247367,0 Z" id="Fill-36" fill="#7C43D6" transform="translate(180.000000, 67.500000) scale(-1, 1) translate(-180.000000, -67.500000) "></path>
            </g>
        </g>
    </g>
</svg>