<?xml version="1.0" encoding="UTF-8" standalone="no"?>
<svg width="260px" height="166px" viewBox="0 0 260 166" version="1.1" xmlns="http://www.w3.org/2000/svg" xmlns:xlink="http://www.w3.org/1999/xlink">
    <!-- Generator: Sketch 50 (54983) - http://www.bohemiancoding.com/sketch -->
    <title>Group 20</title>
    <desc>Created with Sketch.</desc>
    <defs>
        <path d="M4.46771845,0.115208814 C1.99992718,0.115208814 0,2.26741413 0,4.92310754 L0,153.192101 C0,155.847795 1.99992718,158 4.46771845,158 L390.532282,158 C393.000073,158 395,155.847795 395,153.192101 L395,4.92310754 C395,2.26741413 393.000073,0.115208814 390.532282,0.115208814" id="path-1"></path>
    </defs>
    <g id="Page-1" stroke="none" stroke-width="1" fill="none" fill-rule="evenodd">
        <g id="co2" transform="translate(-690.000000, -5587.000000)">
            <g id="Group-20" transform="translate(614.000000, 5572.000000)">
                <g id="Group-13" transform="translate(207.698250, 47.092412) rotate(8.000000) translate(-207.698250, -47.092412) translate(77.698250, 18.092412)">
                    <path d="M19.4388235,20.8565929 C18.4179412,28.7880929 32.4254412,37.4590929 50.7248529,40.22445 C69.0242647,42.9898071 84.6873529,38.8013786 85.7082353,30.8698786 C86.7291176,22.9383786 72.7216176,14.2673786 54.4222059,11.5020214 C36.1227941,8.73666429 20.4597059,12.9250929 19.4388235,20.8565929" id="Fill-1" fill="#0F9828"></path>
                    <path d="M58.1948824,36.0190357 C59.8428235,43.82625 75.7812059,46.5336071 93.7938529,42.0696786 C111.804588,37.60575 125.070324,27.6566786 123.422382,19.8494643 C121.774441,12.0443214 105.836059,9.33489286 87.8234118,13.7988214 C69.8126765,18.2648214 56.5469412,28.2118214 58.1948824,36.0190357" id="Fill-3" fill="#0F9828"></path>
                    <path d="M90.3830735,49.2629214 C94.60425,59.7112071 117.574103,58.9116357 141.683368,47.4752786 C165.792632,36.0389214 181.916456,18.2971357 177.695279,7.84677857 C173.472191,-2.60150714 150.50425,-1.80193571 126.394985,9.63442143 C102.283809,21.0707786 86.1618971,38.8125643 90.3830735,49.2629214" id="Fill-5" fill="#33C04D"></path>
                    <path d="M144.513735,14.442 C142.607706,22.1787857 155.535059,32.6374286 173.387118,37.8015 C191.237265,42.9655714 207.255941,40.8796429 209.161971,33.1407857 C211.068,25.404 198.142559,14.9474286 180.2905,9.78128571 C162.438441,4.61928571 146.419765,6.70521429 144.513735,14.442" id="Fill-7" fill="#33C04D"></path>
                    <path d="M178.929324,12.2786 C176.472706,21.7885286 192.269618,34.8986 214.214765,41.5561714 C236.161824,48.2158143 255.944765,45.9041 258.403294,36.3921 C260.859912,26.8801 245.063,13.7721 223.115941,7.11245714 C201.172706,0.454885714 181.387853,2.7666 178.929324,12.2786" id="Fill-9" fill="#0F9828"></path>
                    <path d="M1.06982353,34.9561857 C2.92423529,42.7074714 18.9257059,44.9218286 36.8121765,39.9006857 C54.6986471,34.8774714 67.6967353,24.5224 65.8423235,16.7711143 C63.9879118,9.01982857 47.9864412,6.80547143 30.0999706,11.8266143 C12.2135,16.8477571 -0.784588235,27.2028286 1.06982353,34.9561857" id="Fill-11" fill="#33C04D"></path>
                </g>
                <g id="Group-16" transform="translate(207.500000, 125.000000) rotate(8.000000) translate(-207.500000, -125.000000) translate(10.000000, 46.000000)">
                    <mask id="mask-2" fill="white">
                        <use xlink:href="#path-1"></use>
                    </mask>
                    <g id="Clip-15"></g>
                    <path d="M315.999617,5.75283118 C315.999617,-65.872479 257.892432,-123.938689 186.213354,-123.938689 C114.536194,-123.938689 56.4290097,-65.872479 56.4290097,5.75283118 C56.4290097,77.3802049 114.536194,135.444352 186.213354,135.444352 C257.892432,135.444352 315.999617,77.3802049 315.999617,5.75283118" id="Fill-14" fill="#00EDFF" mask="url(#mask-2)"></path>
                </g>
            </g>
        </g>
    </g>
</svg>