<?xml version="1.0" encoding="UTF-8" standalone="no"?>
<svg width="1440px" height="823px" viewBox="0 0 1440 823" version="1.1" xmlns="http://www.w3.org/2000/svg" xmlns:xlink="http://www.w3.org/1999/xlink">
    <!-- Generator: Sketch 50 (54983) - http://www.bohemiancoding.com/sketch -->
    <title>Group 5</title>
    <desc>Created with Sketch.</desc>
    <defs></defs>
    <g id="Page-1" stroke="none" stroke-width="1" fill="none" fill-rule="evenodd">
        <g id="landing" transform="translate(0.000000, -352.000000)">
            <g id="Group-5" transform="translate(-80.000000, 352.000000)">
                <path d="M11,231.71227 C11,231.71227 75,-13.429854 279,0.578267357 C279,0.578267357 420.319,17.388013 479.948,168.966893 C481.606,173.181336 484.106,177.053581 487.486,180.067329 C493.677,185.586528 504.654,190.478365 521.911,182.65783 C527.856,179.963268 533.254,176.20609 538.042,171.768517 C561.632,149.900839 683.335,50.2850856 767,235.714591 C767,235.714591 844.657,417.300868 948.012,350.590192 C962.396,341.304808 974.3,328.669483 983.282,314.09003 C1002.103,283.537317 1054.983,211.39249 1113.3,253.689012 C1117.5,256.734778 1122.532,258.545828 1127.719,258.4988 C1138.988,258.393739 1155.268,250.242013 1161.956,207.507237 C1170.341,153.937179 1195.16,104.118296 1234.249,66.5625226 C1300.447,2.96164916 1462.151,-26.9586976 1598,158.669923 L1589,697.982597 L0,728 L11,231.71227 Z" id="Path" fill="#A4F9FF"></path>
                <path d="M20,311.71227 C20,311.71227 84,66.570146 288,80.5782674 C288,80.5782674 429.319,97.388013 488.948,248.966893 C490.606,253.181336 493.106,257.053581 496.486,260.067329 C502.677,265.586528 513.654,270.478365 530.911,262.65783 C536.856,259.963268 542.254,256.20609 547.042,251.768517 C570.632,229.900839 692.335,130.285086 776,315.714591 C776,315.714591 853.657,497.300868 957.012,430.590192 C971.396,421.304808 983.3,408.669483 992.282,394.09003 C1011.103,363.537317 1063.983,291.39249 1122.3,333.689012 C1126.5,336.734778 1131.532,338.545828 1136.719,338.4988 C1147.988,338.393739 1164.268,330.242013 1170.956,287.507237 C1179.341,233.937179 1204.16,184.118296 1243.249,146.562523 C1309.447,82.9616492 1471.151,53.0413024 1607,238.669923 L1598,777.982597 L9,808 L20,311.71227 Z" id="Fill-1" fill="#70F3FD"></path>
                <path d="M20,401.71227 C20,401.71227 84,156.570146 288,170.578267 C288,170.578267 429.319,187.388013 488.948,338.966893 C490.606,343.181336 493.106,347.053581 496.486,350.067329 C502.677,355.586528 513.654,360.478365 530.911,352.65783 C536.856,349.963268 542.254,346.20609 547.042,341.768517 C570.632,319.900839 692.335,220.285086 776,405.714591 C776,405.714591 853.657,587.300868 957.012,520.590192 C971.396,511.304808 983.3,498.669483 992.282,484.09003 C1011.103,453.537317 1063.983,381.39249 1122.3,423.689012 C1126.5,426.734778 1131.532,428.545828 1136.719,428.4988 C1147.988,428.393739 1164.268,420.242013 1170.956,377.507237 C1179.341,323.937179 1204.16,274.118296 1243.249,236.562523 C1309.447,172.961649 1471.151,143.041302 1607,328.669923 L1598,867.982597 L9,898 L20,401.71227 Z" id="Fill-1" fill="#00EDFF"></path>
                <path d="M1606.81708,522.199978 C1606.81708,522.199978 1258.74397,384.791135 1105.15812,589.136046 C1094.4484,603.385605 1082.9199,616.541369 1070.39963,627.965794 C1021.03048,673.013861 909.933542,746.29893 774.069215,658.444774 C774.069215,658.444774 499.192295,461.955854 332.996017,599.126752 C332.996017,599.126752 145.274786,753.908666 66.9401203,575.030009 L62,841.030855 L1611.75653,857.714262 L1606.81708,522.199978 Z" id="Fill-1" fill="#0F9828"></path>
            </g>
        </g>
    </g>
</svg>