<?xml version="1.0" encoding="UTF-8" standalone="no"?>
<svg width="156px" height="178px" viewBox="0 0 156 178" version="1.1" xmlns="http://www.w3.org/2000/svg" xmlns:xlink="http://www.w3.org/1999/xlink">
    <!-- Generator: Sketch 50 (54983) - http://www.bohemiancoding.com/sketch -->
    <title>Group Copy</title>
    <desc>Created with Sketch.</desc>
    <defs>
        <polygon id="path-1" points="0.019534176 0.128700705 38.9533068 0.128700705 38.9533068 149.453374 0.019534176 149.453374"></polygon>
        <polygon id="path-3" points="0.253112967 0.0872920143 30.0912596 0.0872920143 30.0912596 46.8490535 0.253112967 46.8490535"></polygon>
        <polygon id="path-5" points="0.258289861 0.0778760874 55.3956753 0.0778760874 55.3956753 15.2231715 0.258289861 15.2231715"></polygon>
        <polygon id="path-7" points="0.258289861 0.0241334734 55.3956753 0.0241334734 55.3956753 13.3519429 0.258289861 13.3519429"></polygon>
    </defs>
    <g id="Page-1" stroke="none" stroke-width="1" fill="none" fill-rule="evenodd">
        <g id="landing" transform="translate(-1031.000000, -889.000000)">
            <g id="Group-Copy" transform="translate(1098.147406, 979.138264) rotate(23.000000) translate(-1098.147406, -979.138264) translate(1037.147406, 889.138264)">
                <g id="Group-3" transform="translate(54.028712, 29.203533)">
                    <mask id="mask-2" fill="white">
                        <use xlink:href="#path-1"></use>
                    </mask>
                    <g id="Clip-2"></g>
                    <path d="M38.5030279,0.128700705 C38.5030279,0.128700705 -34.0085438,35.0771622 20.0373552,149.453402 L21.8387533,149.453402 C21.8387533,149.453402 -32.6577071,45.9698935 38.9533068,1.49029211 L38.5030279,0.128700705 Z" id="Fill-1" fill="#B643D6" mask="url(#mask-2)"></path>
                </g>
                <path d="M80.7011143,39.8506888 C80.7011143,39.8506888 123.352329,41.0170772 119.817649,1.03071292 L80.7011143,39.8506888 Z" id="Fill-4" fill="#B643D6"></path>
                <path d="M80.6939773,39.8542329 C80.6939773,39.8542329 69.738104,12.166522 119.683856,1.03071292 L80.6939773,39.8542329 Z" id="Fill-6" fill="#C951EB"></path>
                <path d="M56.0804353,91.3616734 C56.0804353,91.3616734 92.3686677,113.841798 109.42524,77.6470401 L56.0804353,91.3616734 Z" id="Fill-8" fill="#B643D6"></path>
                <path d="M56.0804353,91.73345 C56.0804353,91.73345 60.5031815,61.976335 109.42524,77.8342921 L56.0804353,91.73345 Z" id="Fill-10" fill="#C951EB"></path>
                <path d="M58.4741125,130.912222 C58.4741125,130.912222 99.0480013,143.909739 106.689609,104.445576 L58.4741125,130.912222 Z" id="Fill-12" fill="#B643D6"></path>
                <path d="M58.5044709,130.900541 C58.5044709,130.900541 55.5840103,101.103231 107.031563,104.349172 L58.5044709,130.900541 Z" id="Fill-14" fill="#C951EB"></path>
                <path d="M70.1005442,166.904769 C70.1005442,166.904769 111.867991,175.419669 115.238456,135.366964 L70.1005442,166.904769 Z" id="Fill-16" fill="#B643D6"></path>
                <path d="M69.9823987,166.975493 C69.9823987,166.975493 63.8931606,137.704029 115.238456,135.366964 L69.9823987,166.975493 Z" id="Fill-18" fill="#C951EB"></path>
                <path d="M16.413786,32.9828135 C16.413786,32.9828135 26.3541836,74.5397418 63.9453744,60.7607065 L16.413786,32.9828135 Z" id="Fill-20" fill="#B643D6"></path>
                <path d="M16.413786,32.9786909 C16.413786,32.9786909 40.2241833,15.1386517 63.9453744,60.8120623 L16.413786,32.9786909 Z" id="Fill-22" fill="#C951EB"></path>
                <path d="M4.10344649,68.3706238 C4.10344649,68.3706238 22.181508,107.223339 56.4223892,86.1633742 L4.10344649,68.3706238 Z" id="Fill-24" fill="#B643D6"></path>
                <path d="M4.10344649,68.3775687 C4.10344649,68.3775687 23.9795886,46.0352218 56.4223892,86.2363144 L4.10344649,68.3775687 Z" id="Fill-26" fill="#C951EB"></path>
                <path d="M0,113.57313 C0,113.57313 29.6184438,144.185817 55.0545737,113.378421 L0,113.57313 Z" id="Fill-28" fill="#B643D6"></path>
                <path d="M0,113.378421 C0,113.378421 11.5145376,85.6813531 55.0545737,113.180857 L0,113.378421 Z" id="Fill-30" fill="#C951EB"></path>
                <path d="M11.6264317,143.269096 C11.6264317,143.269096 32.7125585,180.341724 64.9712361,156.671863 L11.6264317,143.269096 Z" id="Fill-32" fill="#B643D6"></path>
                <path d="M11.6264317,143.200954 C11.6264317,143.200954 29.5379498,119.39275 64.9712361,156.668364 L11.6264317,143.200954 Z" id="Fill-34" fill="#C951EB"></path>
                <path d="M44.1966378,6.82121026e-13 C44.1966378,6.82121026e-13 34.2554862,41.5683567 73.8620368,46.3820814 L44.1966378,6.82121026e-13 Z" id="Fill-36" fill="#B643D6"></path>
                <g id="Group-40" transform="translate(44.112050, 0.000000)">
                    <mask id="mask-4" fill="white">
                        <use xlink:href="#path-3"></use>
                    </mask>
                    <g id="Clip-39"></g>
                    <path d="M0.253112967,0.223421914 C0.253112967,0.223421914 29.6095046,-4.84607608 30.0912596,46.8490535 L0.253112967,0.223421914 Z" id="Fill-38" fill="#C951EB" mask="url(#mask-4)"></path>
                </g>
                <g id="Group-43" transform="translate(65.655144, 54.971356)">
                    <mask id="mask-6" fill="white">
                        <use xlink:href="#path-5"></use>
                    </mask>
                    <g id="Clip-42"></g>
                    <path d="M0.258289861,2.81556413 C0.258289861,2.81556413 31.332901,32.4769052 55.3957322,0.0778760874 L0.258289861,2.81556413 Z" id="Fill-41" fill="#B643D6" mask="url(#mask-6)"></path>
                </g>
                <g id="Group-46" transform="translate(65.655144, 44.664227)">
                    <mask id="mask-8" fill="white">
                        <use xlink:href="#path-7"></use>
                    </mask>
                    <g id="Clip-45"></g>
                    <path d="M0.258289861,13.3519429 C0.258289861,13.3519429 10.5373286,-14.7260806 55.3957322,10.6259046 L0.258289861,13.3519429 Z" id="Fill-44" fill="#C951EB" mask="url(#mask-8)"></path>
                </g>
            </g>
        </g>
    </g>
</svg>