<?xml version="1.0" encoding="UTF-8" standalone="no"?>
<svg width="476px" height="1250px" viewBox="0 0 476 1250" version="1.1" xmlns="http://www.w3.org/2000/svg" xmlns:xlink="http://www.w3.org/1999/xlink">
    <!-- Generator: Sketch 50 (54983) - http://www.bohemiancoding.com/sketch -->
    <title>Group 25</title>
    <desc>Created with Sketch.</desc>
    <defs>
        <polygon id="path-1" points="0 0.274822022 524.615179 0.274822022 524.615179 849.467983 0 849.467983"></polygon>
        <polygon id="path-3" points="0 0.163664699 311.972689 0.163664699 311.972689 505.883483 0 505.883483"></polygon>
        <polygon id="path-5" points="0 0.130349553 247.978291 0.130349553 247.978291 402.907201 0 402.907201"></polygon>
    </defs>
    <g id="Page-1" stroke="none" stroke-width="1" fill="none" fill-rule="evenodd">
        <g id="co2" transform="translate(-964.000000, -4032.000000)">
            <g id="Group-25" transform="translate(964.000000, 4032.000000)">
                <g id="Group-13">
                    <g id="Group-3">
                        <mask id="mask-2" fill="white">
                            <use xlink:href="#path-1"></use>
                        </mask>
                        <g id="Clip-2"></g>
                        <g id="Group" mask="url(#mask-2)" fill="#7C43D6">
                            <path d="M250.332729,7.87248325 L0.498521739,835.229555 C-1.62752685,842.267198 3.30693606,849.467983 10.2527801,849.467983 L514.509775,849.467983 C521.378547,849.467983 526.241578,842.329079 524.10801,835.383322 L269.903279,7.81997752 C266.805376,-2.26674712 253.383637,-2.23111823 250.332729,7.87248325" id="Fill-1"></path>
                        </g>
                    </g>
                    <path d="M273.17324,963 L250.82676,963 C244.846687,963 240,958.479496 240,952.901883 L240,745.098117 C240,739.520504 244.846687,735 250.82676,735 L273.17324,735 C279.153313,735 284,739.520504 284,745.098117 L284,952.901883 C284,958.479496 279.153313,963 273.17324,963" id="Fill-4" fill="#7C43D6"></path>
                </g>
                <g id="Group-11" transform="translate(9.000000, 542.000000)">
                    <g id="Group-3">
                        <mask id="mask-4" fill="white">
                            <use xlink:href="#path-3"></use>
                        </mask>
                        <g id="Clip-2"></g>
                        <g id="Group" mask="url(#mask-4)" fill="#B643D6">
                            <path d="M148.865259,4.68829824 L0.296455714,497.404076 C-0.967840714,501.595201 1.96653429,505.883483 6.09701643,505.883483 L305.963313,505.883483 C310.047963,505.883483 312.939859,501.632054 311.671091,497.495648 L160.50327,4.65702952 C158.661041,-1.34991542 150.679541,-1.32869736 148.865259,4.68829824" id="Fill-1"></path>
                        </g>
                    </g>
                    <path d="M163.356307,573 L149.643693,573 C145.974103,573 143,570.303559 143,566.976562 L143,443.023438 C143,439.696441 145.974103,437 149.643693,437 L163.356307,437 C167.025897,437 170,439.696441 170,443.023438 L170,566.976562 C170,570.303559 167.025897,573 163.356307,573" id="Fill-4" fill="#B643D6"></path>
                </g>
                <g id="Group-11-Copy" transform="translate(197.000000, 794.000000)">
                    <g id="Group-3">
                        <mask id="mask-6" fill="white">
                            <use xlink:href="#path-5"></use>
                        </mask>
                        <g id="Clip-2"></g>
                        <g id="Group" mask="url(#mask-6)" fill="#C951EB">
                            <path d="M118.328796,3.73396085 L0.235644286,396.153839 C-0.769309286,399.49183 1.56314264,402.907201 4.84634639,402.907201 L243.201608,402.907201 C246.448381,402.907201 248.747068,399.521181 247.73856,396.226771 L127.579522,3.7090571 C126.115187,-1.07513026 119.770918,-1.05823129 118.328796,3.73396085" id="Fill-1"></path>
                        </g>
                    </g>
                    <path d="M129.832683,456 L119.167317,456 C116.313192,456 114,453.858708 114,451.216681 L114,352.783319 C114,350.141292 116.313192,348 119.167317,348 L129.832683,348 C132.686808,348 135,350.141292 135,352.783319 L135,451.216681 C135,453.858708 132.686808,456 129.832683,456" id="Fill-4" fill="#C951EB"></path>
                </g>
            </g>
        </g>
    </g>
</svg>